<mxfile host="app.diagrams.net" modified="2024-07-02T10:43:55.058Z" agent="Mozilla/5.0 (Windows NT 10.0; Win64; x64) AppleWebKit/537.36 (KHTML, like Gecko) Chrome/126.0.0.0 Safari/537.36" etag="LD62s1PF5W3-6LIOmt9p" version="24.6.4" type="device">
  <diagram name="第 1 页" id="GJZ76wVmEsNwXecLRq51">
    <mxGraphModel dx="1434" dy="738" grid="1" gridSize="10" guides="1" tooltips="1" connect="1" arrows="1" fold="1" page="1" pageScale="1" pageWidth="827" pageHeight="1169" math="0" shadow="0">
      <root>
        <mxCell id="0" />
        <mxCell id="1" parent="0" />
        <mxCell id="m7MWTqh82JIl_yRlYdiF-11" value="" style="edgeStyle=orthogonalEdgeStyle;rounded=0;orthogonalLoop=1;jettySize=auto;html=1;" edge="1" parent="1" source="m7MWTqh82JIl_yRlYdiF-9" target="m7MWTqh82JIl_yRlYdiF-10">
          <mxGeometry relative="1" as="geometry" />
        </mxCell>
        <mxCell id="m7MWTqh82JIl_yRlYdiF-9" value="开始" style="ellipse;whiteSpace=wrap;html=1;" vertex="1" parent="1">
          <mxGeometry x="340" y="70" width="120" height="80" as="geometry" />
        </mxCell>
        <mxCell id="m7MWTqh82JIl_yRlYdiF-13" value="" style="edgeStyle=orthogonalEdgeStyle;rounded=0;orthogonalLoop=1;jettySize=auto;html=1;" edge="1" parent="1" source="m7MWTqh82JIl_yRlYdiF-10" target="m7MWTqh82JIl_yRlYdiF-12">
          <mxGeometry relative="1" as="geometry" />
        </mxCell>
        <mxCell id="m7MWTqh82JIl_yRlYdiF-10" value="用户选择日志信息，点击智能识别" style="whiteSpace=wrap;html=1;" vertex="1" parent="1">
          <mxGeometry x="340" y="240" width="120" height="60" as="geometry" />
        </mxCell>
        <mxCell id="m7MWTqh82JIl_yRlYdiF-15" value="" style="edgeStyle=orthogonalEdgeStyle;rounded=0;orthogonalLoop=1;jettySize=auto;html=1;" edge="1" parent="1" source="m7MWTqh82JIl_yRlYdiF-12" target="m7MWTqh82JIl_yRlYdiF-14">
          <mxGeometry relative="1" as="geometry" />
        </mxCell>
        <mxCell id="m7MWTqh82JIl_yRlYdiF-12" value="获取请求数据中的日志信息，经过合并分析处理" style="whiteSpace=wrap;html=1;" vertex="1" parent="1">
          <mxGeometry x="340" y="380" width="120" height="60" as="geometry" />
        </mxCell>
        <mxCell id="m7MWTqh82JIl_yRlYdiF-19" value="" style="edgeStyle=orthogonalEdgeStyle;rounded=0;orthogonalLoop=1;jettySize=auto;html=1;" edge="1" parent="1" source="m7MWTqh82JIl_yRlYdiF-14" target="m7MWTqh82JIl_yRlYdiF-18">
          <mxGeometry relative="1" as="geometry" />
        </mxCell>
        <mxCell id="m7MWTqh82JIl_yRlYdiF-14" value="返回上下文规则，并展示到前台界面" style="whiteSpace=wrap;html=1;" vertex="1" parent="1">
          <mxGeometry x="340" y="520" width="120" height="60" as="geometry" />
        </mxCell>
        <mxCell id="m7MWTqh82JIl_yRlYdiF-18" value="结束" style="ellipse;whiteSpace=wrap;html=1;" vertex="1" parent="1">
          <mxGeometry x="340" y="630" width="120" height="80" as="geometry" />
        </mxCell>
      </root>
    </mxGraphModel>
  </diagram>
</mxfile>
